<?xml version="1.0" encoding="UTF-8"?>
<svg id="Layer_2" data-name="Layer 2" xmlns="http://www.w3.org/2000/svg" viewBox="0 0 293.14 149.22">
  <defs>
    <style>
      .cls-1, .cls-2 {
        fill: #26b2fc;
      }

      .cls-1, .cls-2, .cls-3 {
        stroke-width: 0px;
      }

      .cls-1, .cls-3 {
        fill-rule: evenodd;
      }

      .cls-3 {
        fill: #1a2e45;
      }
    </style>
  </defs>
  <g id="Layer_1-2" data-name="Layer 1">
    <g>
      <path class="cls-1" d="m49.82,0h12.05c8.85,0,8.85,13.37,0,13.37h-12.05c-8.85,0-8.85-13.37,0-13.37h0Zm-21.6,53.49h12.05c8.85,0,8.85,13.37,0,13.37h-12.05c-8.85,0-8.85-13.37,0-13.37Zm25.82,80.24h12.05c8.85,0,8.85,13.37,0,13.37h-12.05c-8.85,0-8.85-13.37,0-13.37ZM207.77,0h-127.13c-8.79,0-8.8,13.37,0,13.37h33.93c8.8,0,8.8,13.37,0,13.37H36.76c-8.8,0-8.79,13.37,0,13.37h53.52c8.8,0,8.78,13.37,0,13.37h-31.58c-8.78,0-8.8,13.37,0,13.37h60.89c8.8,0,8.79,13.37,0,13.37H6.6c-8.8,0-8.79,13.37,0,13.37h74.6c8.8,0,8.78,13.37,0,13.37h-17.02c-8.79,0-8.8,13.37,0,13.37h41.69c8.8,0,8.79,13.37,0,13.37h-19.76c-8.79,0-8.79,13.37,0,13.37h67.89l-5.89-5.32c-4.4-3.98-4.75-10.82-.77-15.22l30.1-33.33c1.31-1.45,2.89-2.53,4.65-3.12-19.3-31.38-7.33-73.58,25.68-90.11Z"/>
      <path class="cls-3" d="m239.69,10.16c-25.78-1.87-48.2,17.51-50.07,43.3-1.87,25.78,17.52,48.2,43.3,50.07,25.78,1.87,48.2-17.52,50.07-43.3,1.87-25.78-17.52-48.2-43.3-50.07h0Zm-45.57,8.59c-19.84,21.97-19.34,55.19.33,76.54l-3.93,4.36c-1.79-1.62-5.01-5.26-8.06-1.88l-30.1,33.33c-1.48,1.64-1.35,4.19.29,5.67l12.65,11.43c1.64,1.48,4.19,1.35,5.67-.29l30.1-33.33c1.48-1.64,1.35-4.19-.29-5.67l-2.4-2.17,3.93-4.35c23.24,17.39,56.34,14.52,76.18-7.45,21.04-23.3,19.21-59.24-4.09-80.27-23.3-21.04-59.24-19.21-80.28,4.09Z"/>
      <path class="cls-2" d="m197.19,54.28c0,4.87,7.4,5.22,7.66.09.83-16.44,16.07-30.27,33.74-29,.09,0,.18,0,.27,0h0c4.9,0,5.21-7.45.05-7.66-22.17-.88-39.36,13.99-41.69,36.04l-.03.51Z"/>
    </g>
  </g>
</svg>